{
    "asset" : {
        "generator" : "Khronos glTF Blender I/O v1.3.48",
        "version" : "2.0"
    },
    "scene" : 0,
    "scenes" : [
        {
            "name" : "Scene",
            "nodes" : [
                19
            ]
        }
    ],
    "nodes" : [
        {
            "name" : "Bone.017",
            "translation" : [
                0,
                0.21268749237060547,
                0
            ]
        },
        {
            "children" : [
                0
            ],
            "name" : "Bone.016",
            "rotation" : [
                0,
                7.105427357601002e-15,
                0,
                1
            ],
            "translation" : [
                0,
                0.3000001907348633,
                0
            ]
        },
        {
            "children" : [
                1
            ],
            "name" : "Bone.015",
            "translation" : [
                0,
                0.3000001907348633,
                0
            ]
        },
        {
            "children" : [
                2
            ],
            "name" : "Bone.014",
            "rotation" : [
                0,
                1.1920926823449918e-07,
                0,
                1
            ],
            "scale" : [
                1,
                0.9999999403953552,
                1
            ],
            "translation" : [
                0,
                0.309999942779541,
                0
            ]
        },
        {
            "children" : [
                3
            ],
            "name" : "Bone.013",
            "translation" : [
                0,
                0.2999999523162842,
                0
            ]
        },
        {
            "children" : [
                4
            ],
            "name" : "Bone.012",
            "translation" : [
                0,
                0.30658960342407227,
                0
            ]
        },
        {
            "children" : [
                5
            ],
            "name" : "Bone.011",
            "translation" : [
                0,
                0.30494213104248047,
                0
            ]
        },
        {
            "children" : [
                6
            ],
            "name" : "Bone.010",
            "translation" : [
                0,
                0.30457615852355957,
                0
            ]
        },
        {
            "children" : [
                7
            ],
            "name" : "Bone.009",
            "translation" : [
                0,
                0.30549144744873047,
                0
            ]
        },
        {
            "children" : [
                8
            ],
            "name" : "Bone.008",
            "translation" : [
                0,
                0.30494213104248047,
                0
            ]
        },
        {
            "children" : [
                9
            ],
            "name" : "Bone.007",
            "translation" : [
                0,
                0.30494225025177,
                0
            ]
        },
        {
            "children" : [
                10
            ],
            "name" : "Bone.006",
            "rotation" : [
                0,
                -1.1920928955078125e-07,
                0,
                1
            ],
            "translation" : [
                0,
                0.30494213104248047,
                0
            ]
        },
        {
            "children" : [
                11
            ],
            "name" : "Bone.005",
            "rotation" : [
                0,
                1.1920928955078125e-07,
                0,
                1
            ],
            "translation" : [
                0,
                0.30494225025177,
                0
            ]
        },
        {
            "children" : [
                12
            ],
            "name" : "Bone.004",
            "translation" : [
                0,
                0.30494225025177,
                0
            ]
        },
        {
            "children" : [
                13
            ],
            "name" : "Bone.003",
            "translation" : [
                0,
                0.3074462413787842,
                0
            ]
        },
        {
            "children" : [
                14
            ],
            "name" : "Bone.002",
            "translation" : [
                0,
                0.30744630098342896,
                0
            ]
        },
        {
            "children" : [
                15
            ],
            "name" : "Bone.001",
            "translation" : [
                0,
                0.30465084314346313,
                0
            ]
        },
        {
            "children" : [
                16
            ],
            "name" : "Bone"
        },
        {
            "mesh" : 0,
            "name" : "Cylinder",
            "skin" : 0
        },
        {
            "children" : [
                18,
                17
            ],
            "name" : "Armature"
        }
    ],
    "meshes" : [
        {
            "name" : "Cylinder.001",
            "primitives" : [
                {
                    "attributes" : {
                        "POSITION" : 0,
                        "NORMAL" : 1,
                        "TEXCOORD_0" : 2,
                        "JOINTS_0" : 3,
                        "WEIGHTS_0" : 4
                    },
                    "indices" : 5
                }
            ]
        }
    ],
    "skins" : [
        {
            "inverseBindMatrices" : 6,
            "joints" : [
                17,
                16,
                15,
                14,
                13,
                12,
                11,
                10,
                9,
                8,
                7,
                6,
                5,
                4,
                3,
                2,
                1,
                0
            ],
            "name" : "Armature"
        }
    ],
    "accessors" : [
        {
            "bufferView" : 0,
            "componentType" : 5126,
            "count" : 1582,
            "max" : [
                0.04062815383076668,
                5.090003490447998,
                0.04271895810961723
            ],
            "min" : [
                -0.0406280942261219,
                0.004565596580505371,
                -0.04271896556019783
            ],
            "type" : "VEC3"
        },
        {
            "bufferView" : 1,
            "componentType" : 5126,
            "count" : 1582,
            "type" : "VEC3"
        },
        {
            "bufferView" : 2,
            "componentType" : 5126,
            "count" : 1582,
            "type" : "VEC2"
        },
        {
            "bufferView" : 3,
            "componentType" : 5123,
            "count" : 1582,
            "type" : "VEC4"
        },
        {
            "bufferView" : 4,
            "componentType" : 5126,
            "count" : 1582,
            "type" : "VEC4"
        },
        {
            "bufferView" : 5,
            "componentType" : 5123,
            "count" : 3048,
            "type" : "SCALAR"
        },
        {
            "bufferView" : 6,
            "componentType" : 5126,
            "count" : 18,
            "type" : "MAT4"
        }
    ],
    "bufferViews" : [
        {
            "buffer" : 0,
            "byteLength" : 18984,
            "byteOffset" : 0
        },
        {
            "buffer" : 0,
            "byteLength" : 18984,
            "byteOffset" : 18984
        },
        {
            "buffer" : 0,
            "byteLength" : 12656,
            "byteOffset" : 37968
        },
        {
            "buffer" : 0,
            "byteLength" : 12656,
            "byteOffset" : 50624
        },
        {
            "buffer" : 0,
            "byteLength" : 25312,
            "byteOffset" : 63280
        },
        {
            "buffer" : 0,
            "byteLength" : 6096,
            "byteOffset" : 88592
        },
        {
            "buffer" : 0,
            "byteLength" : 1152,
            "byteOffset" : 94688
        }
    ],
    "buffers" : [
        {
            "byteLength" : 95840,
            "uri" : "data:application/octet-stream;base64,"
        }
    ]
}
